<?xml version="1.0" standalone="no"?><!DOCTYPE svg PUBLIC "-//W3C//DTD SVG 1.1//EN" "http://www.w3.org/Graphics/SVG/1.1/DTD/svg11.dtd"><svg t="1494425131362" class="icon" style="" viewBox="0 0 1024 1024" version="1.1" xmlns="http://www.w3.org/2000/svg" p-id="2391" xmlns:xlink="http://www.w3.org/1999/xlink" width="200" height="200"><defs><style type="text/css"></style></defs><path d="M372.736 749.056c52.736 0 101.376-18.944 139.264-49.664 37.888 31.232 86.528 49.664 139.264 49.664 121.344 0 220.16-98.816 220.16-220.16 0-92.16-58.368-175.104-144.896-206.848-8.192-3.072-16.896-1.536-23.552 3.584-1.024 0-1.536-0.512-3.072-0.512h-6.144c-15.872 0-15.872 24.064-0.512 25.088 1.536 8.704 7.168 16.384 15.872 19.456 67.072 24.576 111.616 88.576 111.616 159.744 0 93.696-76.288 169.984-169.984 169.984-39.424 0-75.264-13.312-104.448-35.84 28.672-37.376 46.08-83.456 46.08-134.144 0-49.664-16.896-96.256-46.08-134.144 13.824-10.752 29.184-19.456 46.08-25.6 9.728-3.584 15.872-12.288 16.384-22.016 26.624-15.36 52.224-33.28 78.336-48.64 13.824-8.192 1.536-29.696-12.8-21.504-26.112 15.36-51.2 33.28-77.312 48.128-6.144-4.096-14.336-5.632-22.016-2.56-23.552 8.704-45.056 20.992-63.488 36.352-18.944-15.36-39.936-28.16-63.488-36.352-9.216-3.584-18.944-1.024-25.6 5.632-2.048-1.536-4.096-2.56-7.168-2.56-15.872 0-16.384 25.088 0 25.088 1.536 8.704 7.168 15.872 15.872 19.456 16.896 6.144 32.256 14.848 46.08 25.6-29.184 37.888-46.08 84.48-46.08 134.144 0 50.688 17.408 96.768 46.08 134.144-28.672 22.528-65.024 35.84-104.448 35.84-93.696 0-169.984-76.288-169.984-169.984 0-71.168 45.056-135.168 111.616-159.744 9.216-3.584 15.36-11.776 16.384-20.992 24.576-12.288 47.104-27.648 69.12-44.032 12.8-9.728 0.512-31.232-12.8-21.504-20.992 15.872-43.008 30.72-66.56 42.496-6.656-4.608-15.36-6.144-23.04-3.072-86.528 31.744-144.896 114.688-144.896 206.848 0 119.808 98.816 218.624 220.16 218.624z m139.264-317.44c19.456 28.16 30.72 61.952 30.72 97.28 0 36.352-11.264 69.632-30.72 97.28-19.456-27.648-30.72-60.928-30.72-97.28 0-35.328 11.264-69.12 30.72-97.28z" p-id="2392" fill="#ffffff"></path></svg>
